{
  "accessors": [
    {
      "bufferView": 2,
      "componentType": 5126,
      "count": 565,
      "max": [
        1.0825163125991821,
        1.8246746063232422,
        3.9402801990509033
      ],
      "min": [
        -5.608068466186523,
        -1.8246750831604004,
        -2.9607481956481934
      ],
      "type": "VEC3"
    },
    {
      "bufferView": 2,
      "byteOffset": 6780,
      "componentType": 5126,
      "count": 565,
      "max": [
        0.9934872388839722,
        0.8618656992912292,
        0.9978163838386536
      ],
      "min": [
        -0.9999929666519165,
        -1.0,
        -0.9999979138374329
      ],
      "type": "VEC3"
    },
    {
      "bufferView": 1,
      "componentType": 5126,
      "count": 565,
      "max": [
        1.0,
        1.0000001192092896
      ],
      "min": [
        -8.940696716308594e-08,
        0.0
      ],
      "type": "VEC2"
    },
    {
      "bufferView": 0,
      "componentType": 5125,
      "count": 888,
      "type": "SCALAR"
    },
    {
      "bufferView": 2,
      "byteOffset": 13560,
      "componentType": 5126,
      "count": 806,
      "max": [
        28.367633819580078,
        3.436776638031006,
        1.0
      ],
      "min": [
        -2.2305760383605957,
        -6.474435806274414,
        -9.709665298461914
      ],
      "type": "VEC3"
    },
    {
      "bufferView": 2,
      "byteOffset": 23232,
      "componentType": 5126,
      "count": 806,
      "max": [
        1.0,
        1.0,
        1.0
      ],
      "min": [
        -0.999397337436676,
        -1.0,
        -1.0
      ],
      "type": "VEC3"
    },
    {
      "bufferView": 1,
      "byteOffset": 4520,
      "componentType": 5126,
      "count": 806,
      "max": [
        0.8750000596046448,
        1.0
      ],
      "min": [
        0.1249999850988388,
        0.0
      ],
      "type": "VEC2"
    },
    {
      "bufferView": 0,
      "byteOffset": 3552,
      "componentType": 5125,
      "count": 1200,
      "type": "SCALAR"
    },
    {
      "bufferView": 2,
      "byteOffset": 32904,
      "componentType": 5126,
      "count": 76,
      "max": [
        -1.2998141050338745,
        0.8259080648422241,
        0.839418351650238
      ],
      "min": [
        -1.592075228691101,
        -0.8259080052375793,
        -0.8123977184295654
      ],
      "type": "VEC3"
    },
    {
      "bufferView": 2,
      "byteOffset": 33816,
      "componentType": 5126,
      "count": 76,
      "max": [
        -0.18393950164318085,
        0.9826372861862183,
        0.9829375743865967
      ],
      "min": [
        -0.9991142153739929,
        -0.9826372265815735,
        -0.982334315776825
      ],
      "type": "VEC3"
    },
    {
      "bufferView": 1,
      "byteOffset": 10968,
      "componentType": 5126,
      "count": 76,
      "max": [
        0.8750000596046448,
        1.0
      ],
      "min": [
        0.1249999850988388,
        0.25
      ],
      "type": "VEC2"
    },
    {
      "bufferView": 0,
      "byteOffset": 8352,
      "componentType": 5125,
      "count": 108,
      "type": "SCALAR"
    },
    {
      "bufferView": 2,
      "byteOffset": 34728,
      "componentType": 5126,
      "count": 52,
      "max": [
        -1.592075228691101,
        0.40906113386154175,
        0.4688453674316406
      ],
      "min": [
        -2.1831037998199463,
        -5.612055778503418,
        -5.371895790100098
      ],
      "type": "VEC3"
    },
    {
      "bufferView": 2,
      "byteOffset": 35352,
      "componentType": 5126,
      "count": 52,
      "max": [
        0.17236556112766266,
        0.9850330948829651,
        0.8710156679153442
      ],
      "min": [
        -1.0,
        -0.7436597943305969,
        -0.8039547801017761
      ],
      "type": "VEC3"
    },
    {
      "bufferView": 1,
      "byteOffset": 11576,
      "componentType": 5126,
      "count": 52,
      "max": [
        0.875,
        1.0
      ],
      "min": [
        0.125,
        0.0
      ],
      "type": "VEC2"
    },
    {
      "bufferView": 0,
      "byteOffset": 8784,
      "componentType": 5125,
      "count": 84,
      "type": "SCALAR"
    },
    {
      "bufferView": 2,
      "byteOffset": 35976,
      "componentType": 5126,
      "count": 158,
      "max": [
        28.367633819580078,
        3.436776638031006,
        -3.9594886302948
      ],
      "min": [
        -2.738097667694092,
        -2.543276786804199,
        -9.84471321105957
      ],
      "type": "VEC3"
    },
    {
      "bufferView": 2,
      "byteOffset": 37872,
      "componentType": 5126,
      "count": 158,
      "max": [
        0.8458905816078186,
        0.8715474009513855,
        0.9838678240776062
      ],
      "min": [
        -0.9722002744674683,
        -0.8493175506591797,
        -0.9849070310592651
      ],
      "type": "VEC3"
    },
    {
      "bufferView": 1,
      "byteOffset": 11992,
      "componentType": 5126,
      "count": 158,
      "max": [
        0.6465763449668884,
        0.7350852489471436
      ],
      "min": [
        0.20838522911071777,
        0.0
      ],
      "type": "VEC2"
    },
    {
      "bufferView": 0,
      "byteOffset": 9120,
      "componentType": 5125,
      "count": 246,
      "type": "SCALAR"
    },
    {
      "bufferView": 2,
      "byteOffset": 39768,
      "componentType": 5126,
      "count": 76,
      "max": [
        -1.329607605934143,
        -3.675518751144409,
        0.09455645084381104
      ],
      "min": [
        -1.6547470092773438,
        -6.184730529785156,
        -1.8003177642822266
      ],
      "type": "VEC3"
    },
    {
      "bufferView": 2,
      "byteOffset": 40680,
      "componentType": 5126,
      "count": 76,
      "max": [
        -0.1552629917860031,
        0.9523866772651672,
        0.9271709322929382
      ],
      "min": [
        -0.9995650053024292,
        -0.94789719581604,
        -0.9273346662521362
      ],
      "type": "VEC3"
    },
    {
      "bufferView": 1,
      "byteOffset": 13256,
      "componentType": 5126,
      "count": 76,
      "max": [
        0.8750000596046448,
        1.0
      ],
      "min": [
        0.1249999850988388,
        0.25
      ],
      "type": "VEC2"
    },
    {
      "bufferView": 0,
      "byteOffset": 10104,
      "componentType": 5125,
      "count": 108,
      "type": "SCALAR"
    }
  ],
  "asset": {
    "extras": {
      "author": "wErT (https://sketchfab.com/wErTT)",
      "license": "CC-BY-4.0 (http://creativecommons.org/licenses/by/4.0/)",
      "source": "https://sketchfab.com/3d-models/free-stylized-low-poly-snail-05133c7b5ab04a50afeb83aa08d4447b",
      "title": "FREE Stylized Low Poly Snail"
    },
    "generator": "Sketchfab-0.13.0",
    "version": "2.0"
  },
  "bufferViews": [
    {
      "buffer": 0,
      "byteLength": 10536,
      "name": "floatBufferViews",
      "target": 34963
    },
    {
      "buffer": 0,
      "byteLength": 13864,
      "byteOffset": 10536,
      "byteStride": 8,
      "name": "floatBufferViews",
      "target": 34962
    },
    {
      "buffer": 0,
      "byteLength": 41592,
      "byteOffset": 24400,
      "byteStride": 12,
      "name": "floatBufferViews",
      "target": 34962
    }
  ],
  "buffers": [
    {
      "byteLength": 65992,
      "uri": "scene.bin"
    }
  ],
  "materials": [
    {
      "doubleSided": true,
      "name": "Material",
      "pbrMetallicRoughness": {
        "baseColorFactor": [
          0.36984,
          0.149687,
          0.0840868,
          1.0
        ],
        "metallicFactor": 0.0,
        "roughnessFactor": 0.9502331620603891
      }
    },
    {
      "doubleSided": true,
      "name": "Material.002",
      "pbrMetallicRoughness": {
        "baseColorFactor": [
          0.391638,
          0.417867,
          0.0684733,
          1.0
        ],
        "metallicFactor": 0.0,
        "roughnessFactor": 0.9134497489891189
      }
    },
    {
      "doubleSided": true,
      "name": "Material.004",
      "pbrMetallicRoughness": {
        "baseColorFactor": [
          0.8,
          0.8,
          0.8,
          1.0
        ],
        "metallicFactor": 0.0,
        "roughnessFactor": 0.8211145618000169
      }
    },
    {
      "doubleSided": true,
      "name": "Material.006",
      "pbrMetallicRoughness": {
        "baseColorFactor": [
          0.0,
          0.0,
          0.0,
          1.0
        ],
        "metallicFactor": 0.0
      }
    },
    {
      "doubleSided": true,
      "name": "Material.003",
      "pbrMetallicRoughness": {
        "baseColorFactor": [
          0.93656,
          0.839205,
          0.449845,
          1.0
        ],
        "metallicFactor": 0.0,
        "roughnessFactor": 0.8140059047019561
      }
    },
    {
      "doubleSided": true,
      "name": "Material.005",
      "pbrMetallicRoughness": {
        "baseColorFactor": [
          0.8,
          0.8,
          0.8,
          1.0
        ],
        "metallicFactor": 0.0,
        "roughnessFactor": 0.8211145618000169
      }
    }
  ],
  "meshes": [
    {
      "name": "Shell_Material_0",
      "primitives": [
        {
          "attributes": {
            "NORMAL": 1,
            "POSITION": 0,
            "TEXCOORD_0": 2
          },
          "indices": 3,
          "material": 0,
          "mode": 4
        }
      ]
    },
    {
      "name": "Cube.002_Material.002_0",
      "primitives": [
        {
          "attributes": {
            "NORMAL": 5,
            "POSITION": 4,
            "TEXCOORD_0": 6
          },
          "indices": 7,
          "material": 1,
          "mode": 4
        }
      ]
    },
    {
      "name": "Cube.002_Material.004_0",
      "primitives": [
        {
          "attributes": {
            "NORMAL": 9,
            "POSITION": 8,
            "TEXCOORD_0": 10
          },
          "indices": 11,
          "material": 2,
          "mode": 4
        }
      ]
    },
    {
      "name": "Cube.002_Material.006_0",
      "primitives": [
        {
          "attributes": {
            "NORMAL": 13,
            "POSITION": 12,
            "TEXCOORD_0": 14
          },
          "indices": 15,
          "material": 3,
          "mode": 4
        }
      ]
    },
    {
      "name": "Cube.002_Material.003_0",
      "primitives": [
        {
          "attributes": {
            "NORMAL": 17,
            "POSITION": 16,
            "TEXCOORD_0": 18
          },
          "indices": 19,
          "material": 4,
          "mode": 4
        }
      ]
    },
    {
      "name": "Cube.002_Material.005_0",
      "primitives": [
        {
          "attributes": {
            "NORMAL": 21,
            "POSITION": 20,
            "TEXCOORD_0": 22
          },
          "indices": 23,
          "material": 5,
          "mode": 4
        }
      ]
    }
  ],
  "nodes": [
    {
      "children": [
        1
      ],
      "matrix": [
        1.0,
        0.0,
        0.0,
        0.0,
        0.0,
        2.220446049250313e-16,
        -1.0,
        0.0,
        0.0,
        1.0,
        2.220446049250313e-16,
        0.0,
        0.0,
        0.0,
        0.0,
        1.0
      ],
      "name": "Sketchfab_model"
    },
    {
      "children": [
        2
      ],
      "matrix": [
        0.009999999776482582,
        0.0,
        0.0,
        0.0,
        0.0,
        0.0,
        0.009999999776482582,
        0.0,
        0.0,
        -0.009999999776482582,
        0.0,
        0.0,
        0.0,
        0.0,
        0.0,
        1.0
      ],
      "name": "878fddd1941e43158100adc2079acd53.fbx"
    },
    {
      "children": [
        3,
        5
      ],
      "name": "RootNode"
    },
    {
      "children": [
        4
      ],
      "matrix": [
        7.999999046325684,
        0.0,
        0.0,
        0.0,
        0.0,
        -1.3033652797613838e-06,
        -7.999999046325578,
        0.0,
        0.0,
        7.999999046325578,
        -1.3033652797613838e-06,
        0.0,
        23.715839385986328,
        22.000003814697266,
        0.0,
        1.0
      ],
      "name": "Shell"
    },
    {
      "mesh": 0,
      "name": "Shell_Material_0"
    },
    {
      "children": [
        6,
        7,
        8,
        9,
        10
      ],
      "matrix": [
        2.442791973730846,
        0.05479996492761358,
        -0.01468359758125089,
        0.0,
        6.229048308431662e-09,
        -1.061571660345548,
        -3.9618407012935513,
        0.0,
        -0.1451658911449295,
        6.037517070064793,
        -1.6177472807639328,
        0.0,
        -31.067123413085938,
        50.70878219604492,
        -10.808363914489746,
        1.0
      ],
      "name": "Cube.002"
    },
    {
      "mesh": 1,
      "name": "Cube.002_Material.002_0"
    },
    {
      "mesh": 2,
      "name": "Cube.002_Material.004_0"
    },
    {
      "mesh": 3,
      "name": "Cube.002_Material.006_0"
    },
    {
      "mesh": 4,
      "name": "Cube.002_Material.003_0"
    },
    {
      "mesh": 5,
      "name": "Cube.002_Material.005_0"
    }
  ],
  "scene": 0,
  "scenes": [
    {
      "name": "Sketchfab_Scene",
      "nodes": [
        0
      ]
    }
  ]
}
